<?xml version="1.0" encoding="utf-8"?>
<!-- Generator: Adobe Illustrator 27.4.0, SVG Export Plug-In . SVG Version: 6.00 Build 0)  -->
<svg version="1.1" id="Capa_1" xmlns="http://www.w3.org/2000/svg" xmlns:xlink="http://www.w3.org/1999/xlink" x="0px" y="0px"
	 viewBox="0 0 1142.01 893.65" style="enable-background:new 0 0 1142.01 893.65;" xml:space="preserve">
<style type="text/css">
	.st0{fill:none;}
	.st1{fill:#E20613;}
</style>
<g>
	<path class="st0" d="M527.06,720.32c0.55-15.1-8.48-23.38-20.75-29.4c-0.94-0.46-1.84-1.02-2.73-1.58
		c-14.65-9.28-14.65-9.28-15.45,9.49c-3.4,10.19,1.95,16.8,13.12,20.96c6.57,2.45,12.45,6.75,18.66,10.19
		c2.9,1.6,5.9,5.46,9.05,3.31c3.79-2.58-0.24-6.07-0.97-9.16C527.69,722.86,527.02,721.58,527.06,720.32z"/>
	<path class="st0" d="M605.08,710.94c0.11,5.36-0.76,10.37-3.37,15.14c-1.12,2.04-1.89,4.76,0.34,6.51c1.98,1.56,3.9-0.21,5.69-1.26
		c7.46-4.37,14.57-9.56,22.47-12.88c10.63-4.48,16.9-10.45,13.44-22.75c0-2.88,0.04-5.76-0.01-8.64c-0.04-2.03,0.68-4.47-1.55-5.71
		c-2.25-1.26-3.91,0.64-5.59,1.79c-8.2,5.64-16.41,11.28-24.56,17C608.19,702.76,604.97,705.92,605.08,710.94z"/>
	<path d="M925.73,405.33c-16.43-3.68-32.88-7.26-49.33-10.84c-32.66-7.11-65.26-14.58-98.06-21c-8.13-1.59-13.45-4.87-17.29-11.76
		c-6.79-12.17-13.86-24.18-20.63-36.36c-12.02-21.61-23.88-43.3-35.86-64.93c-2.52-4.56-5.64-7.65-11.7-7.69
		c-47.13-0.36-94.26-0.97-148.67-0.1c-28.54,0-64.37,0.48-100.17-0.32c-9.61-0.21-14.33,3.33-18.59,10.95
		c-19,33.98-38.35,67.77-57.56,101.64c-2.13,3.76-4.56,6.97-9.23,7.92c-25.53,5.2-51.06,10.37-76.54,15.8
		c-27.02,5.76-53.99,11.77-80.96,17.72c-2.22,0.49-5.37,0.25-5.99,2.96c-0.6,2.63,2.08,4.11,4.01,5.34
		c24.65,15.68,49.33,31.31,74.09,46.83c3.33,2.09,6.95,3.52,11.23,2.21c20.85-6.4,41.77-12.57,62.62-18.99
		c7.4-2.28,8.76-1.48,9.23,6.27c1.81,29.96,3.88,59.9,5.4,89.88c0.45,8.91,3.38,16.08,9.29,22.71
		c23.32,26.1,46.38,52.43,69.48,78.74c3.44,3.92,6.79,4.32,10.89,1.02c9.83-7.92,19.74-15.77,29.71-23.51
		c3.21-2.5,4.68-5.27,4.03-9.49c-5.47-35.63-9.34-71.49-15.68-107c-1.1-6.18-3.99-8.8-9.89-10.36
		c-14.23-3.76-28.28-8.25-42.38-12.49c-5.19-1.56-8.39-4.79-9.64-10.35c-3.69-16.43-7.7-32.78-11.59-49.16
		c-0.43-1.8-1.16-3.84,0.52-5.17c2.1-1.66,4.11,0.05,5.7,1.2c4.91,3.53,9.55,7.43,14.44,10.98c22.57,16.39,45.14,32.76,67.81,49.01
		c4.15,2.97,6.57,6.65,7.22,11.66c5.44,41.74,10.7,83.5,16.57,125.18c1.04,7.37-1.1,11.73-6.49,16.21
		c-15.18,12.61-29.94,25.73-44.95,38.56c-5.29,4.52-8.29,9.62-8.04,17.03c0.4,11.57,0.3,23.2-0.55,34.74
		c-0.53,7.24,2.03,11.97,7.55,16.07c14.79,10.98,29.49,22.09,44.08,33.32c3.35,2.58,6.87,3.66,10.95,3.65
		c35.82-0.09,71.64-0.19,107.46-0.18c4.96,0,9.07-1.44,13.1-4.43c15.21-11.3,30.59-22.37,46.03-33.36
		c4.25-3.03,6.27-6.63,6.17-11.93c-0.24-12.37-0.49-24.77,0.02-37.13c0.34-8.2-2.7-13.94-8.87-19.04
		c-15.61-12.92-30.8-26.34-46.39-39.28c-5.23-4.34-7.12-8.95-5.92-15.81c2.35-13.48,3.85-27.1,5.66-40.67
		c3.87-28.95,7.71-57.9,11.58-86.84c0.45-3.39,2.56-5.45,5.31-7.38c17.01-11.95,33.9-24.07,50.81-36.14
		c11.35-8.1,22.65-16.26,34.03-24.32c1.66-1.17,3.57-2.8,5.71-1.21c1.45,1.07,1,2.88,0.46,4.39c-5.99,16.66-8.58,34.18-12.96,51.25
		c-1.08,4.2-3.12,7.65-7.29,8.53c-15.49,3.26-30.09,9.55-45.42,13.16c-7.01,1.65-9.62,5.26-10.29,11.79
		c-0.96,9.42-2.17,18.83-3.49,28.21c-3.56,25.28-7.2,50.55-10.93,75.8c-0.63,4.24,1.04,6.99,4.21,9.44
		c10.21,7.87,20.62,15.5,30.12,24.27c3.76,3.47,7.18,4.13,11.33-0.52c24.38-27.28,49.66-53.77,72.97-82.01
		c4.05-4.91,6.13-10.01,6.29-16.47c0.78-31.33,1.99-62.64,4.25-93.91c0.43-5.87,2.47-7.51,7.96-5.54
		c20.3,7.27,40.92,13.49,61.76,19.08c5.76,1.55,10,0.67,14.7-2.43c22.85-15.07,45.83-29.95,68.77-44.89
		c2.4-1.56,5.82-2.72,5.36-6.12C932.74,405.65,928.66,405.98,925.73,405.33z M528.97,733.3c-3.16,2.15-6.15-1.71-9.05-3.31
		c-6.21-3.44-12.09-7.74-18.66-10.19c-11.17-4.16-16.51-10.78-13.12-20.96c0.8-18.77,0.8-18.77,15.45-9.49
		c0.89,0.56,1.79,1.12,2.73,1.58c12.27,6.02,21.3,14.3,20.75,29.4c-0.05,1.26,0.63,2.54,0.93,3.82
		C528.72,727.22,532.76,730.72,528.97,733.3z M636.5,683.14c1.67-1.15,3.33-3.05,5.59-1.79c2.22,1.24,1.51,3.68,1.55,5.71
		c0.06,2.88,0.01,5.76,0.01,8.64c3.46,12.3-2.81,18.28-13.44,22.75c-7.9,3.32-15.02,8.51-22.47,12.88
		c-1.79,1.05-3.71,2.82-5.69,1.26c-2.23-1.76-1.46-4.48-0.34-6.51c2.61-4.77,3.49-9.78,3.37-15.14c-0.11-5.02,3.12-8.18,6.86-10.81
		C620.09,694.41,628.3,688.78,636.5,683.14z"/>
	<path d="M336.53,361.08c6.53,1.37,9.8,0.17,13.07-5.97c16.71-31.34,33.94-62.41,51.11-93.5c3.73-6.75,3.12-8.3-4.49-8.32
		c-22.12-0.07-44.23-0.02-66.35-0.02c0-0.2,0-0.4,0-0.6c-19.22,0-38.45-0.27-57.66,0.08c-18.1,0.33-34.03-5.5-48.75-15.5
		c-15.84-10.76-17.64-16.92-12.02-35.15c9.93-32.23,22.08-63.64,34.05-95.12c0.71-1.87,2.42-4.14,0.02-5.65
		c-2.18-1.37-4.02,0.56-5.39,2.1c-4.02,4.52-7.68,9.37-11.84,13.74c-23.45,24.56-47.03,49-70.51,73.54
		c-9.63,10.07-19.94,19.6-26.4,32.27c-4.32,8.47-4.38,16.99-0.86,25.85c9.54,24,21.92,46.61,33.52,69.61
		c2.44,4.85,5.75,7.75,11.15,8.91c16.45,3.54,32.77,7.68,49.25,11.07C261.78,346.08,299.22,353.28,336.53,361.08z"/>
	<path d="M1000.27,222.98c-6.46-12.67-16.77-22.2-26.4-32.27c-23.48-24.54-47.06-48.97-70.51-73.54
		c-4.17-4.37-7.83-9.22-11.84-13.74c-1.37-1.54-3.21-3.47-5.39-2.1c-2.4,1.51-0.7,3.77,0.02,5.65
		c11.97,31.48,24.12,62.9,34.05,95.12c5.62,18.22,3.82,24.38-12.02,35.15c-14.72,10-30.65,15.83-48.75,15.5
		c-19.22-0.35-38.44-0.08-57.66-0.08c0,0.2,0,0.4,0,0.6c-22.12,0-44.23-0.04-66.35,0.02c-7.61,0.02-8.21,1.57-4.49,8.32
		c17.17,31.1,34.4,62.16,51.11,93.5c3.27,6.14,6.54,7.33,13.07,5.97c37.31-7.8,74.75-15,112.09-22.67
		c16.48-3.39,32.8-7.53,49.25-11.07c5.4-1.16,8.71-4.07,11.15-8.91c11.6-23,23.98-45.61,33.52-69.61
		C1004.65,239.96,1004.59,231.45,1000.27,222.98z"/>
</g>
</svg>
