<?xml version="1.0" encoding="UTF-8"?>
<svg xmlns="http://www.w3.org/2000/svg" xmlns:xlink="http://www.w3.org/1999/xlink" width="1142.01pt" height="893.647pt" viewBox="0 0 1142.01 893.647">
<path fill-rule="nonzero" fill="rgb(0%, 0%, 0%)" fill-opacity="1" d="M 635.949219 682.757812 C 637.625 681.605469 639.28125 679.707031 641.53125 680.964844 C 643.753906 682.207031 643.039062 684.644531 643.078125 686.671875 C 643.132812 689.550781 643.089844 692.429688 643.089844 695.308594 C 646.542969 707.597656 640.285156 713.570312 629.664062 718.039062 C 621.769531 721.363281 614.660156 726.542969 607.210938 730.914062 C 605.421875 731.960938 603.507812 733.726562 601.523438 732.167969 C 599.292969 730.414062 600.070312 727.695312 601.1875 725.660156 C 603.796875 720.898438 604.667969 715.886719 604.554688 710.535156 C 604.449219 705.523438 607.667969 702.363281 611.410156 699.738281 C 619.554688 694.023438 627.753906 688.390625 635.949219 682.757812 M 528.507812 732.871094 C 525.355469 735.015625 522.359375 731.164062 519.460938 729.558594 C 513.257812 726.128906 507.386719 721.828125 500.816406 719.378906 C 489.660156 715.222656 484.316406 708.613281 487.710938 698.433594 C 488.511719 679.675781 488.511719 679.679688 503.148438 688.953125 C 504.03125 689.515625 504.933594 690.070312 505.875 690.53125 C 518.132812 696.550781 527.15625 704.816406 526.605469 719.90625 C 526.558594 721.164062 527.234375 722.441406 527.535156 723.71875 C 528.265625 726.800781 532.296875 730.292969 528.507812 732.871094 M 924.933594 405.1875 C 908.515625 401.515625 892.082031 397.929688 875.644531 394.355469 C 843.007812 387.253906 810.441406 379.785156 777.671875 373.371094 C 769.546875 371.78125 764.234375 368.507812 760.394531 361.625 C 753.609375 349.46875 746.542969 337.464844 739.777344 325.296875 C 727.769531 303.710938 715.914062 282.039062 703.949219 260.429688 C 701.425781 255.875 698.316406 252.785156 692.257812 252.738281 C 645.167969 252.382812 598.082031 251.773438 543.722656 252.640625 C 515.203125 252.640625 479.40625 253.117188 443.632812 252.324219 C 434.035156 252.109375 429.316406 255.648438 425.058594 263.265625 C 406.078125 297.222656 386.746094 330.980469 367.550781 364.816406 C 365.421875 368.570312 362.992188 371.777344 358.335938 372.726562 C 332.828125 377.917969 307.316406 383.085938 281.859375 388.507812 C 254.863281 394.257812 227.921875 400.265625 200.96875 406.21875 C 198.746094 406.707031 195.597656 406.464844 194.984375 409.175781 C 194.386719 411.804688 197.0625 413.285156 198.988281 414.511719 C 223.625 430.171875 248.28125 445.796875 273.011719 461.304688 C 276.339844 463.386719 279.960938 464.820312 284.238281 463.507812 C 305.070312 457.109375 325.976562 450.949219 346.800781 444.527344 C 354.195312 442.246094 355.554688 443.050781 356.023438 450.789062 C 357.824219 480.722656 359.894531 510.640625 361.417969 540.589844 C 361.871094 549.488281 364.789062 556.65625 370.703125 563.277344 C 394.003906 589.355469 417.046875 615.667969 440.125 641.945312 C 443.5625 645.859375 446.910156 646.261719 451.007812 642.964844 C 460.832031 635.046875 470.722656 627.210938 480.6875 619.472656 C 483.902344 616.976562 485.367188 614.203125 484.71875 609.988281 C 479.257812 574.390625 475.390625 538.558594 469.054688 503.078125 C 467.953125 496.90625 465.070312 494.285156 459.175781 492.730469 C 444.957031 488.980469 430.925781 484.492188 416.835938 480.246094 C 411.652344 478.6875 408.449219 475.464844 407.199219 469.910156 C 403.515625 453.496094 399.507812 437.160156 395.621094 420.792969 C 395.195312 418.996094 394.457031 416.953125 396.136719 415.628906 C 398.238281 413.972656 400.242188 415.683594 401.828125 416.824219 C 406.730469 420.347656 411.371094 424.242188 416.261719 427.792969 C 438.804688 444.167969 461.363281 460.527344 484.011719 476.757812 C 488.160156 479.730469 490.574219 483.402344 491.226562 488.40625 C 496.664062 530.105469 501.917969 571.832031 507.785156 613.472656 C 508.824219 620.835938 506.683594 625.195312 501.296875 629.667969 C 486.128906 642.269531 471.382812 655.378906 456.386719 668.191406 C 451.101562 672.710938 448.105469 677.800781 448.355469 685.207031 C 448.753906 696.761719 448.652344 708.386719 447.8125 719.914062 C 447.28125 727.144531 449.835938 731.871094 455.351562 735.964844 C 470.132812 746.933594 484.816406 758.03125 499.398438 769.261719 C 502.746094 771.835938 506.265625 772.914062 510.34375 772.902344 C 546.128906 772.816406 581.917969 772.71875 617.707031 772.726562 C 622.664062 772.726562 626.769531 771.289062 630.792969 768.300781 C 645.992188 757.011719 661.355469 745.945312 676.78125 734.96875 C 681.03125 731.945312 683.046875 728.347656 682.945312 723.054688 C 682.699219 710.691406 682.453125 698.304688 682.957031 685.957031 C 683.292969 677.765625 680.261719 672.03125 674.101562 666.933594 C 658.503906 654.027344 643.328125 640.617188 627.75 627.6875 C 622.523438 623.351562 620.636719 618.75 621.828125 611.886719 C 624.171875 598.425781 625.675781 584.8125 627.488281 571.257812 C 631.355469 542.335938 635.191406 513.414062 639.054688 484.492188 C 639.507812 481.105469 641.609375 479.050781 644.363281 477.113281 C 661.355469 465.175781 678.230469 453.070312 695.128906 441 C 706.46875 432.90625 717.765625 424.753906 729.128906 416.699219 C 730.785156 415.527344 732.695312 413.902344 734.832031 415.488281 C 736.277344 416.5625 735.828125 418.363281 735.285156 419.875 C 729.300781 436.519531 726.710938 454.027344 722.339844 471.082031 C 721.265625 475.277344 719.226562 478.726562 715.0625 479.601562 C 699.582031 482.855469 684.996094 489.148438 669.675781 492.746094 C 662.675781 494.390625 660.066406 498 659.398438 504.523438 C 658.4375 513.9375 657.234375 523.335938 655.914062 532.707031 C 652.351562 557.964844 648.722656 583.210938 644.988281 608.445312 C 644.363281 612.679688 646.027344 615.429688 649.195312 617.875 C 659.402344 625.738281 669.796875 633.363281 679.292969 642.125 C 683.054688 645.589844 686.464844 646.25 690.617188 641.609375 C 714.980469 614.351562 740.230469 587.886719 763.519531 559.664062 C 767.566406 554.761719 769.644531 549.664062 769.800781 543.210938 C 770.582031 511.910156 771.789062 480.625 774.054688 449.386719 C 774.480469 443.523438 776.519531 441.886719 782.011719 443.851562 C 802.296875 451.113281 822.898438 457.328125 843.714844 462.914062 C 849.472656 464.460938 853.703125 463.585938 858.402344 460.488281 C 881.234375 445.425781 904.191406 430.558594 927.117188 415.640625 C 929.511719 414.082031 932.9375 412.917969 932.476562 409.527344 C 931.929688 405.515625 927.859375 405.84375 924.933594 405.1875 "/>
<path fill-rule="nonzero" fill="rgb(0%, 0%, 0%)" fill-opacity="1" d="M 336.238281 360.980469 C 342.769531 362.34375 346.03125 361.152344 349.304688 355.015625 C 366 323.703125 383.21875 292.664062 400.371094 261.59375 C 404.09375 254.847656 403.492188 253.300781 395.886719 253.277344 C 373.789062 253.210938 351.695312 253.253906 329.597656 253.253906 C 329.597656 253.058594 329.597656 252.859375 329.597656 252.660156 C 310.390625 252.660156 291.183594 252.382812 271.984375 252.738281 C 253.894531 253.070312 237.980469 247.246094 223.273438 237.257812 C 207.445312 226.503906 205.652344 220.347656 211.265625 202.140625 C 221.1875 169.941406 233.324219 138.554688 245.285156 107.097656 C 245.996094 105.226562 247.699219 102.964844 245.304688 101.457031 C 243.125 100.085938 241.285156 102.015625 239.914062 103.554688 C 235.902344 108.070312 232.246094 112.914062 228.082031 117.28125 C 204.65625 141.824219 181.089844 166.234375 157.636719 190.75 C 148.015625 200.808594 137.714844 210.335938 131.261719 222.992188 C 126.949219 231.457031 126.890625 239.964844 130.40625 248.816406 C 139.933594 272.796875 152.304688 295.382812 163.894531 318.359375 C 166.339844 323.203125 169.640625 326.105469 175.039062 327.265625 C 191.472656 330.800781 207.78125 334.945312 224.242188 338.328125 C 261.550781 345.992188 298.957031 353.1875 336.238281 360.980469 "/>
<path fill-rule="nonzero" fill="rgb(0%, 0%, 0%)" fill-opacity="1" d="M 999.40625 222.992188 C 992.953125 210.335938 982.652344 200.808594 973.03125 190.75 C 949.574219 166.234375 926.011719 141.824219 902.585938 117.277344 C 898.421875 112.914062 894.765625 108.066406 890.75 103.554688 C 889.382812 102.015625 887.542969 100.085938 885.363281 101.457031 C 882.96875 102.964844 884.667969 105.226562 885.382812 107.097656 C 897.34375 138.554688 909.480469 169.941406 919.402344 202.140625 C 925.015625 220.347656 923.222656 226.503906 907.394531 237.257812 C 892.6875 247.25 876.773438 253.070312 858.683594 252.738281 C 839.484375 252.382812 820.273438 252.660156 801.070312 252.660156 C 801.070312 252.859375 801.070312 253.054688 801.070312 253.253906 C 778.972656 253.253906 756.878906 253.210938 734.78125 253.277344 C 727.175781 253.300781 726.574219 254.847656 730.300781 261.59375 C 747.449219 292.664062 764.667969 323.703125 781.363281 355.015625 C 784.636719 361.152344 787.898438 362.34375 794.425781 360.980469 C 831.710938 353.1875 869.117188 345.992188 906.425781 338.328125 C 922.886719 334.945312 939.191406 330.800781 955.628906 327.265625 C 961.023438 326.105469 964.332031 323.203125 966.773438 318.359375 C 978.363281 295.382812 990.730469 272.796875 1000.261719 248.816406 C 1003.777344 239.964844 1003.71875 231.457031 999.40625 222.992188 "/>
</svg>
