<?xml version="1.0" encoding="UTF-8"?>
<svg xmlns="http://www.w3.org/2000/svg" xmlns:xlink="http://www.w3.org/1999/xlink" width="5001.88pt" height="893.647pt" viewBox="0 0 5001.88 893.647">
<path fill-rule="nonzero" fill="rgb(0%, 0%, 0%)" fill-opacity="1" d="M 637.175781 682.867188 C 638.851562 681.714844 640.511719 679.816406 642.761719 681.074219 C 644.984375 682.316406 644.269531 684.753906 644.308594 686.785156 C 644.363281 689.664062 644.320312 692.546875 644.320312 695.425781 C 647.777344 707.722656 641.515625 713.695312 630.886719 718.167969 C 622.988281 721.492188 615.875 726.675781 608.425781 731.046875 C 606.636719 732.09375 604.71875 733.863281 602.734375 732.300781 C 600.503906 730.546875 601.28125 727.828125 602.394531 725.792969 C 605.007812 721.027344 605.882812 716.015625 605.765625 710.660156 C 605.660156 705.644531 608.882812 702.484375 612.628906 699.855469 C 620.773438 694.140625 628.976562 688.503906 637.175781 682.867188 M 529.6875 733.007812 C 526.53125 735.152344 523.535156 731.296875 520.632812 729.695312 C 514.425781 726.261719 508.550781 721.957031 501.980469 719.507812 C 490.820312 715.347656 485.472656 708.738281 488.867188 698.554688 C 489.667969 679.785156 489.667969 679.789062 504.3125 689.066406 C 505.199219 689.628906 506.097656 690.1875 507.039062 690.648438 C 519.304688 696.667969 528.332031 704.9375 527.78125 720.035156 C 527.734375 721.292969 528.410156 722.570312 528.714844 723.851562 C 529.441406 726.933594 533.476562 730.425781 529.6875 733.007812 M 926.296875 405.167969 C 909.871094 401.492188 893.429688 397.90625 876.984375 394.332031 C 844.332031 387.226562 811.75 379.753906 778.964844 373.335938 C 770.835938 371.746094 765.523438 368.46875 761.679688 361.582031 C 754.890625 349.417969 747.824219 337.410156 741.054688 325.238281 C 729.039062 303.644531 717.179688 281.960938 705.207031 260.339844 C 702.6875 255.785156 699.574219 252.695312 693.511719 252.648438 C 646.402344 252.292969 599.292969 251.683594 544.90625 252.550781 C 516.375 252.550781 480.558594 253.027344 444.769531 252.230469 C 435.167969 252.019531 430.445312 255.558594 426.1875 263.179688 C 407.199219 297.152344 387.855469 330.925781 368.652344 364.777344 C 366.523438 368.53125 364.089844 371.738281 359.429688 372.691406 C 333.914062 377.882812 308.390625 383.054688 282.921875 388.480469 C 255.910156 394.234375 228.957031 400.242188 201.988281 406.199219 C 199.769531 406.6875 196.617188 406.449219 196.003906 409.15625 C 195.40625 411.789062 198.082031 413.269531 200.011719 414.496094 C 224.65625 430.164062 249.328125 445.796875 274.070312 461.308594 C 277.394531 463.394531 281.019531 464.828125 285.300781 463.515625 C 306.140625 457.117188 327.058594 450.953125 347.890625 444.527344 C 355.292969 442.246094 356.648438 443.046875 357.117188 450.792969 C 358.921875 480.738281 360.992188 510.671875 362.515625 540.632812 C 362.96875 549.535156 365.890625 556.710938 371.808594 563.332031 C 395.117188 589.425781 418.171875 615.746094 441.261719 642.035156 C 444.699219 645.953125 448.046875 646.355469 452.144531 643.054688 C 461.976562 635.136719 471.875 627.296875 481.84375 619.550781 C 485.058594 617.054688 486.519531 614.28125 485.875 610.066406 C 480.410156 574.449219 476.539062 538.601562 470.203125 503.105469 C 469.101562 496.929688 466.214844 494.308594 460.320312 492.753906 C 446.09375 489 432.058594 484.507812 417.960938 480.261719 C 412.773438 478.703125 409.570312 475.476562 408.320312 469.917969 C 404.632812 453.5 400.621094 437.152344 396.734375 420.78125 C 396.308594 418.984375 395.570312 416.9375 397.25 415.613281 C 399.351562 413.957031 401.359375 415.667969 402.945312 416.808594 C 407.851562 420.335938 412.492188 424.230469 417.382812 427.78125 C 439.941406 444.167969 462.507812 460.535156 485.167969 476.773438 C 489.316406 479.746094 491.734375 483.417969 492.386719 488.425781 C 497.828125 530.144531 503.082031 571.890625 508.953125 613.550781 C 509.992188 620.917969 507.851562 625.277344 502.460938 629.753906 C 487.285156 642.363281 472.53125 655.476562 457.53125 668.296875 C 452.242188 672.816406 449.242188 677.910156 449.496094 685.316406 C 449.890625 696.878906 449.792969 708.511719 448.949219 720.042969 C 448.421875 727.277344 450.976562 732.003906 456.496094 736.101562 C 471.28125 747.074219 485.972656 758.179688 500.5625 769.410156 C 503.910156 771.988281 507.433594 773.066406 511.511719 773.058594 C 547.316406 772.972656 583.121094 772.871094 618.925781 772.878906 C 623.886719 772.882812 627.988281 771.441406 632.019531 768.453125 C 647.222656 757.160156 662.59375 746.085938 678.027344 735.105469 C 682.28125 732.082031 684.296875 728.480469 684.191406 723.183594 C 683.949219 710.816406 683.703125 698.421875 684.207031 686.070312 C 684.542969 677.875 681.511719 672.136719 675.347656 667.039062 C 659.742188 654.125 644.558594 640.707031 628.972656 627.773438 C 623.746094 623.433594 621.855469 618.832031 623.050781 611.964844 C 625.394531 598.496094 626.902344 584.878906 628.714844 571.316406 C 632.582031 542.382812 636.417969 513.445312 640.285156 484.507812 C 640.734375 481.121094 642.839844 479.066406 645.597656 477.128906 C 662.597656 465.183594 679.476562 453.074219 696.386719 441 C 707.730469 432.898438 719.03125 424.746094 730.398438 416.683594 C 732.054688 415.511719 733.96875 413.886719 736.105469 415.472656 C 737.554688 416.546875 737.105469 418.351562 736.558594 419.863281 C 730.570312 436.515625 727.980469 454.03125 723.609375 471.09375 C 722.535156 475.289062 720.492188 478.742188 716.324219 479.617188 C 700.839844 482.871094 686.246094 489.167969 670.921875 492.769531 C 663.917969 494.414062 661.304688 498.023438 660.636719 504.550781 C 659.671875 513.972656 658.472656 523.371094 657.148438 532.746094 C 653.585938 558.015625 649.957031 583.277344 646.222656 608.519531 C 645.597656 612.753906 647.257812 615.511719 650.429688 617.953125 C 660.640625 625.824219 671.042969 633.453125 680.542969 642.214844 C 684.300781 645.683594 687.71875 646.34375 691.867188 641.699219 C 716.246094 614.429688 741.507812 587.953125 764.804688 559.71875 C 768.851562 554.8125 770.933594 549.710938 771.09375 543.257812 C 771.871094 511.941406 773.078125 480.640625 775.347656 449.386719 C 775.773438 443.523438 777.8125 441.882812 783.308594 443.847656 C 803.601562 451.113281 824.210938 457.335938 845.042969 462.921875 C 850.800781 464.46875 855.035156 463.59375 859.734375 460.492188 C 882.578125 445.425781 905.546875 430.554688 928.480469 415.625 C 930.878906 414.066406 934.304688 412.902344 933.84375 409.511719 C 933.296875 405.496094 929.222656 405.824219 926.296875 405.167969 "/>
<path fill-rule="nonzero" fill="rgb(0%, 0%, 0%)" fill-opacity="1" d="M 337.324219 360.9375 C 343.859375 362.304688 347.121094 361.113281 350.394531 354.972656 C 367.097656 323.644531 384.324219 292.589844 401.484375 261.507812 C 405.210938 254.757812 404.605469 253.210938 397 253.1875 C 374.894531 253.121094 352.785156 253.164062 330.679688 253.164062 C 330.679688 252.964844 330.679688 252.765625 330.679688 252.566406 C 311.464844 252.566406 292.246094 252.292969 273.039062 252.648438 C 254.941406 252.980469 239.019531 247.152344 224.304688 237.15625 C 208.472656 226.398438 206.675781 220.242188 212.289062 202.023438 C 222.21875 169.808594 234.359375 138.410156 246.328125 106.9375 C 247.042969 105.066406 248.742188 102.800781 246.347656 101.292969 C 244.167969 99.921875 242.328125 101.851562 240.957031 103.394531 C 236.941406 107.910156 233.285156 112.757812 229.117188 117.125 C 205.679688 141.679688 182.105469 166.101562 158.636719 190.632812 C 149.011719 200.691406 138.707031 210.226562 132.253906 222.886719 C 127.9375 231.355469 127.875 239.867188 131.394531 248.722656 C 140.929688 272.714844 153.304688 295.3125 164.898438 318.300781 C 167.34375 323.144531 170.648438 326.050781 176.050781 327.210938 C 192.492188 330.746094 208.804688 334.890625 225.277344 338.277344 C 262.601562 345.945312 300.027344 353.144531 337.324219 360.9375 "/>
<path fill-rule="nonzero" fill="rgb(0%, 0%, 0%)" fill-opacity="1" d="M 782.660156 354.972656 C 785.933594 361.113281 789.199219 362.304688 795.730469 360.9375 C 833.027344 353.140625 870.453125 345.945312 907.777344 338.277344 C 924.25 334.894531 940.5625 330.746094 957.003906 327.210938 C 962.40625 326.050781 965.710938 323.144531 968.15625 318.300781 C 979.75 295.3125 992.125 272.714844 1001.660156 248.722656 C 1005.179688 239.867188 1005.121094 231.355469 1000.804688 222.886719 C 994.351562 210.226562 984.042969 200.695312 974.417969 190.632812 C 950.953125 166.101562 927.375 141.679688 903.9375 117.125 C 899.769531 112.757812 896.117188 107.910156 892.097656 103.394531 C 890.730469 101.851562 888.886719 99.921875 886.707031 101.292969 C 884.3125 102.800781 886.015625 105.0625 886.726562 106.9375 C 898.695312 138.410156 910.839844 169.808594 920.765625 202.023438 C 926.378906 220.242188 924.585938 226.398438 908.75 237.160156 C 894.035156 247.152344 878.113281 252.980469 860.015625 252.648438 C 840.808594 252.292969 821.589844 252.566406 802.375 252.566406 C 802.375 252.765625 802.375 252.964844 802.375 253.164062 C 780.269531 253.164062 758.164062 253.121094 736.054688 253.1875 C 728.449219 253.210938 727.84375 254.757812 731.570312 261.503906 C 748.730469 292.589844 765.957031 323.644531 782.660156 354.972656 "/>
<path fill-rule="nonzero" fill="rgb(1.960754%, 1.960754%, 2.352905%)" fill-opacity="1" d="M 1142.484375 252.101562 L 1021.671875 252.101562 C 1021.242188 253.441406 1020.769531 254.78125 1020.242188 256.109375 C 1012.414062 275.800781 1002.816406 294.484375 993.53125 312.558594 C 991.011719 317.464844 988.492188 322.375 986.003906 327.300781 C 980.707031 337.808594 972.359375 344.355469 961.214844 346.753906 C 954.046875 348.292969 946.699219 350.003906 939.601562 351.652344 C 930.546875 353.761719 921.191406 355.929688 911.804688 357.859375 C 898.277344 360.636719 884.585938 363.386719 871.148438 366.078125 L 946.898438 370.195312 L 949.019531 626.785156 L 1050.980469 626.785156 L 1050.980469 370.195312 L 1142.484375 366.316406 Z M 1142.484375 252.101562 "/>
<path fill-rule="nonzero" fill="rgb(1.960754%, 1.960754%, 2.352905%)" fill-opacity="1" d="M 1433.394531 505.550781 C 1428.324219 516.710938 1421.339844 526.289062 1412.433594 534.273438 C 1403.523438 542.269531 1393.042969 548.375 1380.988281 552.597656 C 1368.9375 556.824219 1355.917969 558.929688 1341.949219 558.929688 C 1327.96875 558.929688 1314.960938 556.824219 1302.90625 552.597656 C 1290.855469 548.375 1280.371094 542.269531 1271.464844 534.273438 C 1262.554688 526.289062 1255.5625 516.710938 1250.503906 505.550781 C 1245.433594 494.398438 1242.902344 482.027344 1242.902344 468.457031 C 1242.902344 454.585938 1245.433594 442.148438 1250.503906 431.132812 C 1255.5625 420.128906 1262.554688 410.628906 1271.464844 402.632812 C 1280.371094 394.648438 1290.855469 388.539062 1302.90625 384.3125 C 1314.960938 380.09375 1327.96875 377.980469 1341.949219 377.980469 C 1355.917969 377.980469 1368.9375 380.09375 1380.988281 384.3125 C 1393.042969 388.539062 1403.523438 394.648438 1412.433594 402.632812 C 1421.339844 410.628906 1428.324219 420.128906 1433.394531 431.132812 C 1438.453125 442.148438 1440.992188 454.585938 1440.992188 468.457031 C 1440.992188 482.027344 1438.453125 494.398438 1433.394531 505.550781 M 1487.632812 350.613281 C 1469.464844 335.683594 1448.066406 324.148438 1423.4375 316.007812 C 1398.808594 307.863281 1371.636719 303.792969 1341.949219 303.792969 C 1312.601562 303.792969 1285.523438 307.863281 1260.71875 316.007812 C 1235.910156 324.148438 1214.34375 335.683594 1196 350.613281 C 1177.660156 365.539062 1163.421875 382.957031 1153.292969 402.863281 C 1143.15625 422.765625 1138.09375 444.632812 1138.09375 468.457031 C 1138.09375 492.28125 1143.15625 514.144531 1153.292969 534.050781 C 1163.421875 553.953125 1177.660156 571.371094 1196 586.296875 C 1214.34375 601.226562 1235.910156 612.761719 1260.71875 620.90625 C 1285.523438 629.046875 1312.601562 633.121094 1341.949219 633.121094 C 1371.636719 633.121094 1398.808594 629.046875 1423.4375 620.90625 C 1448.066406 612.761719 1469.464844 601.304688 1487.632812 586.523438 C 1505.792969 571.753906 1520.035156 554.335938 1530.34375 534.273438 C 1540.644531 514.222656 1545.804688 492.28125 1545.804688 468.457031 C 1545.804688 444.632812 1540.644531 422.765625 1530.34375 402.863281 C 1520.035156 382.957031 1505.792969 365.539062 1487.632812 350.613281 "/>
<path fill-rule="nonzero" fill="rgb(1.960754%, 1.960754%, 2.352905%)" fill-opacity="1" d="M 1810.179688 392.910156 C 1820.832031 401.050781 1826.164062 412.515625 1826.164062 427.289062 C 1826.164062 441.765625 1820.832031 453.074219 1810.179688 461.214844 C 1799.519531 469.359375 1783.363281 473.429688 1761.707031 473.429688 L 1704.058594 473.429688 L 1704.058594 380.695312 L 1761.707031 380.695312 C 1783.363281 380.695312 1799.519531 384.765625 1810.179688 392.910156 M 1911.058594 489.039062 C 1924.332031 471.699219 1930.972656 451.117188 1930.972656 427.289062 C 1930.972656 403.164062 1924.332031 382.277344 1911.058594 364.636719 C 1897.777344 346.992188 1879 333.5 1854.722656 324.148438 C 1830.4375 314.804688 1801.53125 310.125 1767.992188 310.125 L 1600.296875 310.125 L 1600.296875 626.785156 L 1704.058594 626.785156 L 1704.058594 542.644531 L 1760.699219 542.644531 L 1827.210938 626.785156 L 1938.308594 626.785156 L 1859.082031 527.125 C 1881.257812 518.023438 1898.582031 505.332031 1911.058594 489.039062 "/>
<path fill-rule="nonzero" fill="rgb(1.960754%, 1.960754%, 2.352905%)" fill-opacity="1" d="M 2264.523438 505.550781 C 2259.453125 516.710938 2252.46875 526.289062 2243.5625 534.273438 C 2234.652344 542.269531 2224.171875 548.375 2212.117188 552.597656 C 2200.066406 556.824219 2187.046875 558.929688 2173.078125 558.929688 C 2159.097656 558.929688 2146.089844 556.824219 2134.035156 552.597656 C 2121.984375 548.375 2111.5 542.269531 2102.59375 534.273438 C 2093.683594 526.289062 2086.691406 516.710938 2081.628906 505.550781 C 2076.5625 494.398438 2074.03125 482.027344 2074.03125 468.457031 C 2074.03125 454.585938 2076.5625 442.148438 2081.628906 431.132812 C 2086.691406 420.128906 2093.683594 410.628906 2102.59375 402.632812 C 2111.5 394.648438 2121.984375 388.539062 2134.035156 384.3125 C 2146.089844 380.09375 2159.097656 377.980469 2173.078125 377.980469 C 2187.046875 377.980469 2200.066406 380.09375 2212.117188 384.3125 C 2224.171875 388.539062 2234.652344 394.648438 2243.5625 402.632812 C 2252.46875 410.628906 2259.453125 420.128906 2264.523438 431.132812 C 2269.582031 442.148438 2272.121094 454.585938 2272.121094 468.457031 C 2272.121094 482.027344 2269.582031 494.398438 2264.523438 505.550781 M 2318.761719 350.613281 C 2300.59375 335.683594 2279.195312 324.148438 2254.566406 316.007812 C 2229.9375 307.863281 2202.765625 303.792969 2173.078125 303.792969 C 2143.730469 303.792969 2116.652344 307.863281 2091.847656 316.007812 C 2067.039062 324.148438 2045.472656 335.683594 2027.128906 350.613281 C 2008.789062 365.539062 1994.550781 382.957031 1984.421875 402.863281 C 1974.28125 422.765625 1969.222656 444.632812 1969.222656 468.457031 C 1969.222656 492.28125 1974.28125 514.144531 1984.421875 534.050781 C 1994.550781 553.953125 2008.789062 571.371094 2027.128906 586.296875 C 2045.472656 601.226562 2067.039062 612.761719 2091.847656 620.90625 C 2116.652344 629.046875 2143.730469 633.121094 2173.078125 633.121094 C 2202.765625 633.121094 2229.9375 629.046875 2254.566406 620.90625 C 2279.195312 612.761719 2300.59375 601.304688 2318.761719 586.523438 C 2336.921875 571.753906 2351.164062 554.335938 2361.472656 534.273438 C 2371.773438 514.222656 2376.933594 492.28125 2376.933594 468.457031 C 2376.933594 444.632812 2371.773438 422.765625 2361.472656 402.863281 C 2351.164062 382.957031 2336.921875 365.539062 2318.761719 350.613281 "/>
<path fill-rule="nonzero" fill="rgb(92.935181%, 10.850525%, 14.599609%)" fill-opacity="1" d="M 2853.296875 310.121094 L 2727.734375 493.078125 L 2598.613281 310.121094 L 2513.191406 310.121094 L 2513.191406 626.785156 L 2609.09375 626.785156 L 2609.09375 463.472656 L 2702.898438 595.570312 L 2749.015625 595.570312 L 2843.46875 458.773438 L 2844.390625 626.785156 L 2939.765625 626.785156 L 2938.71875 310.121094 Z M 2853.296875 310.121094 "/>
<path fill-rule="nonzero" fill="rgb(92.935181%, 10.850525%, 14.599609%)" fill-opacity="1" d="M 3289.566406 505.546875 C 3284.496094 516.707031 3277.511719 526.285156 3268.601562 534.273438 C 3259.695312 542.269531 3249.214844 548.375 3237.160156 552.59375 C 3225.109375 556.820312 3212.089844 558.929688 3198.121094 558.929688 C 3184.140625 558.929688 3171.132812 556.820312 3159.078125 552.59375 C 3147.023438 548.375 3136.542969 542.269531 3127.632812 534.273438 C 3118.726562 526.285156 3111.734375 516.707031 3106.671875 505.546875 C 3101.605469 494.394531 3099.074219 482.023438 3099.074219 468.453125 C 3099.074219 454.585938 3101.605469 442.144531 3106.671875 431.132812 C 3111.734375 420.125 3118.726562 410.625 3127.632812 402.632812 C 3136.542969 394.644531 3147.023438 388.539062 3159.078125 384.3125 C 3171.132812 380.089844 3184.140625 377.976562 3198.121094 377.976562 C 3212.089844 377.976562 3225.109375 380.089844 3237.160156 384.3125 C 3249.214844 388.539062 3259.695312 394.644531 3268.601562 402.632812 C 3277.511719 410.625 3284.496094 420.125 3289.566406 431.132812 C 3294.625 442.144531 3297.164062 454.585938 3297.164062 468.453125 C 3297.164062 482.023438 3294.625 494.394531 3289.566406 505.546875 M 3343.804688 350.609375 C 3325.632812 335.679688 3304.238281 324.144531 3279.609375 316.003906 C 3254.976562 307.859375 3227.808594 303.789062 3198.121094 303.789062 C 3168.773438 303.789062 3141.691406 307.859375 3116.890625 316.003906 C 3092.082031 324.144531 3070.511719 335.679688 3052.171875 350.609375 C 3033.832031 365.539062 3019.589844 382.953125 3009.460938 402.859375 C 2999.324219 422.765625 2994.265625 444.632812 2994.265625 468.453125 C 2994.265625 492.28125 2999.324219 514.144531 3009.460938 534.046875 C 3019.589844 553.953125 3033.832031 571.367188 3052.171875 586.296875 C 3070.511719 601.226562 3092.082031 612.761719 3116.890625 620.902344 C 3141.691406 629.046875 3168.773438 633.117188 3198.121094 633.117188 C 3227.808594 633.117188 3254.976562 629.046875 3279.609375 620.902344 C 3304.238281 612.761719 3325.632812 601.304688 3343.804688 586.523438 C 3361.964844 571.75 3376.207031 554.332031 3386.511719 534.273438 C 3396.8125 514.21875 3401.972656 492.28125 3401.972656 468.453125 C 3401.972656 444.632812 3396.8125 422.765625 3386.511719 402.859375 C 3376.207031 382.953125 3361.964844 365.539062 3343.804688 350.609375 "/>
<path fill-rule="nonzero" fill="rgb(92.935181%, 10.850525%, 14.599609%)" fill-opacity="1" d="M 3611.460938 516.53125 L 3512.027344 310.121094 L 3399.878906 310.121094 L 3556.570312 626.785156 L 3658.757812 626.785156 L 3815.972656 310.121094 L 3713.261719 310.121094 Z M 3611.460938 516.53125 "/>
<path fill-rule="nonzero" fill="rgb(92.935181%, 10.850525%, 14.599609%)" fill-opacity="1" d="M 3940.167969 499.667969 L 4103.144531 499.667969 L 4103.144531 432.714844 L 3940.167969 432.714844 L 3940.167969 379.335938 L 4125.15625 379.335938 L 4125.15625 310.121094 L 3837.453125 310.121094 L 3837.453125 626.785156 L 4131.96875 626.785156 L 4131.96875 557.570312 L 3940.167969 557.570312 Z M 3940.167969 499.667969 "/>
<path fill-rule="nonzero" fill="rgb(92.935181%, 10.850525%, 14.599609%)" fill-opacity="1" d="M 4399.492188 392.90625 C 4410.148438 401.050781 4415.476562 412.515625 4415.476562 427.289062 C 4415.476562 441.761719 4410.148438 453.070312 4399.492188 461.214844 C 4388.832031 469.359375 4372.675781 473.429688 4351.019531 473.429688 L 4293.375 473.429688 L 4293.375 380.691406 L 4351.019531 380.691406 C 4372.675781 380.691406 4388.832031 384.765625 4399.492188 392.90625 M 4500.371094 489.035156 C 4513.644531 471.695312 4520.285156 451.113281 4520.285156 427.289062 C 4520.285156 403.164062 4513.644531 382.273438 4500.371094 364.632812 C 4487.09375 346.988281 4468.316406 333.496094 4444.039062 324.144531 C 4419.75 314.800781 4390.847656 310.121094 4357.308594 310.121094 L 4189.613281 310.121094 L 4189.613281 626.785156 L 4293.375 626.785156 L 4293.375 542.644531 L 4350.015625 542.644531 L 4416.523438 626.785156 L 4527.625 626.785156 L 4448.394531 527.125 C 4470.570312 518.023438 4487.898438 505.328125 4500.371094 489.035156 "/>
<path fill-rule="nonzero" fill="rgb(92.935181%, 10.850525%, 14.599609%)" fill-opacity="1" d="M 4857.503906 489.488281 C 4849.988281 478.484375 4840.121094 469.582031 4827.898438 462.796875 C 4815.664062 456.011719 4802.128906 450.585938 4787.28125 446.511719 C 4772.429688 442.441406 4757.585938 439.050781 4742.738281 436.332031 C 4727.886719 433.621094 4714.261719 430.984375 4701.863281 428.417969 C 4689.457031 425.859375 4679.5 422.535156 4671.992188 418.464844 C 4664.476562 414.394531 4660.726562 408.894531 4660.726562 401.953125 C 4660.726562 396.527344 4662.640625 391.707031 4666.492188 387.476562 C 4670.332031 383.257812 4676.621094 379.867188 4685.355469 377.300781 C 4694.085938 374.742188 4705.613281 373.453125 4719.945312 373.453125 C 4736.007812 373.453125 4752.605469 375.488281 4769.726562 379.5625 C 4786.839844 383.632812 4804.132812 389.742188 4821.609375 397.882812 L 4853.574219 331.382812 C 4835.40625 322.335938 4814.707031 315.480469 4791.476562 310.800781 C 4768.238281 306.128906 4744.574219 303.789062 4720.46875 303.789062 C 4684.480469 303.789062 4654.4375 308.46875 4630.332031 317.8125 C 4606.222656 327.164062 4588.144531 339.527344 4576.09375 354.90625 C 4564.039062 370.289062 4558.011719 387.476562 4558.011719 406.476562 C 4558.011719 423.371094 4561.851562 437.316406 4569.542969 448.320312 C 4577.222656 459.335938 4587.179688 468.226562 4599.414062 475.011719 C 4611.636719 481.800781 4625.171875 487.304688 4640.027344 491.523438 C 4654.871094 495.75 4669.71875 499.214844 4684.570312 501.929688 C 4699.414062 504.644531 4712.949219 507.355469 4725.183594 510.070312 C 4737.410156 512.785156 4747.367188 516.257812 4755.054688 520.476562 C 4762.734375 524.703125 4766.582031 530.429688 4766.582031 537.664062 C 4766.582031 542.796875 4764.570312 547.242188 4760.558594 551.011719 C 4756.535156 554.785156 4750.15625 557.796875 4741.429688 560.058594 C 4732.691406 562.320312 4721.164062 563.453125 4706.839844 563.453125 C 4685.527344 563.453125 4664.132812 560.511719 4642.648438 554.628906 C 4621.160156 548.75 4602.203125 541.285156 4585.789062 532.238281 L 4551.726562 598.285156 C 4569.1875 608.539062 4591.8125 616.910156 4619.589844 623.390625 C 4647.363281 629.871094 4676.265625 633.117188 4706.316406 633.117188 C 4742.648438 633.117188 4772.78125 628.4375 4796.714844 619.09375 C 4820.640625 609.75 4838.640625 597.308594 4850.691406 581.773438 C 4862.746094 566.242188 4868.773438 549.28125 4868.773438 530.878906 C 4868.773438 514.296875 4865.015625 500.5 4857.503906 489.488281 "/>
</svg>
