<?xml version="1.0" encoding="UTF-8"?>
<svg xmlns="http://www.w3.org/2000/svg" xmlns:xlink="http://www.w3.org/1999/xlink" width="2393.54pt" height="892.235pt" viewBox="0 0 2393.54 892.235">
<path fill-rule="nonzero" fill="rgb(0%, 0%, 0%)" fill-opacity="1" d="M 569.042969 682.550781 C 570.71875 681.402344 572.375 679.503906 574.628906 680.761719 C 576.847656 682 576.132812 684.441406 576.171875 686.46875 C 576.226562 689.34375 576.1875 692.226562 576.1875 695.105469 C 579.640625 707.394531 573.382812 713.363281 562.757812 717.835938 C 554.863281 721.15625 547.753906 726.339844 540.304688 730.710938 C 538.515625 731.757812 536.601562 733.523438 534.617188 731.964844 C 532.386719 730.207031 533.164062 727.492188 534.28125 725.457031 C 536.890625 720.691406 537.761719 715.683594 537.648438 710.332031 C 537.542969 705.320312 540.761719 702.160156 544.503906 699.53125 C 552.648438 693.820312 560.847656 688.1875 569.042969 682.550781 M 461.601562 732.667969 C 458.449219 734.8125 455.453125 730.960938 452.554688 729.355469 C 446.351562 725.925781 440.476562 721.621094 433.910156 719.175781 C 422.753906 715.015625 417.410156 708.410156 420.804688 698.230469 C 421.605469 679.472656 421.605469 679.472656 436.238281 688.75 C 437.125 689.308594 438.027344 689.867188 438.96875 690.328125 C 451.226562 696.34375 460.25 704.613281 459.699219 719.703125 C 459.652344 720.960938 460.328125 722.238281 460.628906 723.515625 C 461.359375 726.597656 465.390625 730.089844 461.601562 732.667969 M 865.574219 409.320312 C 865.027344 405.308594 860.957031 405.636719 858.03125 404.980469 C 841.613281 401.304688 825.179688 397.722656 808.738281 394.148438 C 776.101562 387.046875 743.539062 379.578125 710.765625 373.164062 C 702.640625 371.574219 697.332031 368.296875 693.488281 361.414062 C 686.703125 349.257812 679.640625 337.253906 672.871094 325.089844 C 660.863281 303.503906 649.007812 281.828125 637.042969 260.21875 C 634.523438 255.667969 631.410156 252.578125 625.355469 252.53125 C 578.265625 252.175781 531.175781 251.566406 476.816406 252.433594 C 448.296875 252.433594 412.496094 252.910156 376.726562 252.113281 C 367.128906 251.902344 362.410156 255.441406 358.152344 263.058594 C 339.171875 297.011719 319.839844 330.769531 300.644531 364.605469 C 298.515625 368.363281 296.085938 371.570312 291.425781 372.515625 C 265.921875 377.707031 240.410156 382.878906 214.953125 388.300781 C 187.953125 394.050781 161.011719 400.058594 134.058594 406.011719 C 131.835938 406.5 128.6875 406.257812 128.074219 408.96875 C 127.480469 411.597656 130.152344 413.078125 132.082031 414.304688 C 156.714844 429.964844 181.375 445.589844 206.105469 461.097656 C 209.429688 463.179688 213.050781 464.613281 217.328125 463.300781 C 238.164062 456.902344 259.070312 450.746094 279.894531 444.320312 C 287.289062 442.039062 288.648438 442.84375 289.113281 450.585938 C 290.917969 480.515625 292.984375 510.4375 294.507812 540.382812 C 294.960938 549.28125 297.882812 556.453125 303.796875 563.070312 C 327.097656 589.152344 350.140625 615.460938 373.21875 641.738281 C 376.65625 645.65625 380.003906 646.058594 384.097656 642.757812 C 393.925781 634.84375 403.816406 627.007812 413.78125 619.265625 C 416.996094 616.769531 418.457031 614 417.8125 609.785156 C 412.351562 574.183594 408.484375 538.351562 402.148438 502.871094 C 401.046875 496.699219 398.164062 494.078125 392.269531 492.523438 C 378.046875 488.773438 364.019531 484.285156 349.925781 480.039062 C 344.746094 478.480469 341.539062 475.257812 340.292969 469.703125 C 336.609375 453.289062 332.597656 436.953125 328.710938 420.585938 C 328.285156 418.789062 327.550781 416.746094 329.226562 415.421875 C 331.328125 413.765625 333.332031 415.476562 334.917969 416.617188 C 339.824219 420.140625 344.464844 424.035156 349.351562 427.585938 C 371.898438 443.960938 394.457031 460.320312 417.105469 476.554688 C 421.253906 479.523438 423.667969 483.195312 424.320312 488.199219 C 429.757812 529.898438 435.011719 571.625 440.878906 613.265625 C 441.917969 620.628906 439.777344 624.988281 434.390625 629.464844 C 419.222656 642.066406 404.476562 655.171875 389.480469 667.988281 C 384.191406 672.503906 381.195312 677.597656 381.449219 685 C 381.84375 696.558594 381.746094 708.183594 380.902344 719.707031 C 380.375 726.941406 382.929688 731.667969 388.445312 735.761719 C 403.226562 746.730469 417.910156 757.828125 432.492188 769.054688 C 435.839844 771.632812 439.359375 772.707031 443.4375 772.699219 C 479.226562 772.613281 515.011719 772.511719 550.800781 772.523438 C 555.761719 772.523438 559.863281 771.085938 563.886719 768.097656 C 579.085938 756.808594 594.449219 745.738281 609.875 734.765625 C 614.128906 731.742188 616.140625 728.144531 616.039062 722.851562 C 615.796875 710.488281 615.546875 698.101562 616.054688 685.753906 C 616.390625 677.5625 613.355469 671.828125 607.195312 666.730469 C 591.597656 653.824219 576.421875 640.410156 560.84375 627.480469 C 555.621094 623.148438 553.730469 618.542969 554.925781 611.683594 C 557.269531 598.21875 558.773438 584.609375 560.585938 571.054688 C 564.449219 542.132812 568.285156 513.207031 572.148438 484.285156 C 572.601562 480.898438 574.703125 478.84375 577.460938 476.90625 C 594.453125 464.96875 611.324219 452.863281 628.226562 440.792969 C 639.5625 432.699219 650.859375 424.546875 662.222656 416.492188 C 663.878906 415.320312 665.792969 413.695312 667.925781 415.28125 C 669.375 416.355469 668.925781 418.15625 668.382812 419.667969 C 662.394531 436.316406 659.804688 453.820312 655.4375 470.875 C 654.363281 475.070312 652.324219 478.519531 648.15625 479.394531 C 632.675781 482.648438 618.089844 488.941406 602.773438 492.542969 C 595.773438 494.1875 593.160156 497.792969 592.492188 504.316406 C 591.53125 513.734375 590.328125 523.128906 589.007812 532.5 C 585.445312 557.757812 581.816406 583.003906 578.085938 608.238281 C 577.460938 612.472656 579.121094 615.226562 582.292969 617.667969 C 592.496094 625.53125 602.894531 633.160156 612.390625 641.917969 C 616.148438 645.382812 619.5625 646.046875 623.710938 641.402344 C 648.074219 614.144531 673.328125 587.683594 696.613281 559.460938 C 700.660156 554.558594 702.738281 549.457031 702.898438 543.007812 C 703.675781 511.707031 704.882812 480.417969 707.152344 449.179688 C 707.574219 443.316406 709.613281 441.679688 715.105469 443.644531 C 735.394531 450.90625 755.992188 457.121094 776.8125 462.707031 C 782.570312 464.253906 786.800781 463.378906 791.5 460.28125 C 814.332031 445.21875 837.289062 430.355469 860.214844 415.433594 C 862.609375 413.875 866.035156 412.710938 865.574219 409.320312 "/>
<path fill-rule="nonzero" fill="rgb(0%, 0%, 0%)" fill-opacity="1" d="M 269.332031 360.773438 C 275.859375 362.136719 279.125 360.945312 282.394531 354.808594 C 299.089844 323.492188 316.308594 292.457031 333.460938 261.386719 C 337.1875 254.636719 336.582031 253.09375 328.980469 253.070312 C 306.882812 253.003906 284.785156 253.046875 262.6875 253.046875 C 262.6875 252.847656 262.6875 252.648438 262.691406 252.449219 C 243.484375 252.449219 224.273438 252.175781 205.074219 252.53125 C 186.984375 252.863281 171.070312 247.039062 156.363281 237.046875 C 140.535156 226.292969 138.742188 220.140625 144.355469 201.929688 C 154.277344 169.730469 166.414062 138.347656 178.378906 106.886719 C 179.089844 105.015625 180.789062 102.753906 178.394531 101.246094 C 176.21875 99.875 174.378906 101.804688 173.007812 103.34375 C 168.992188 107.859375 165.339844 112.707031 161.171875 117.070312 C 137.746094 141.613281 114.183594 166.027344 90.726562 190.542969 C 81.105469 200.601562 70.804688 210.128906 64.351562 222.785156 C 60.039062 231.246094 59.980469 239.757812 63.496094 248.609375 C 73.027344 272.585938 85.398438 295.175781 96.984375 318.152344 C 99.429688 322.996094 102.734375 325.898438 108.128906 327.058594 C 124.566406 330.59375 140.871094 334.738281 157.335938 338.121094 C 194.644531 345.785156 232.050781 352.980469 269.332031 360.773438 "/>
<path fill-rule="nonzero" fill="rgb(0%, 0%, 0%)" fill-opacity="1" d="M 714.460938 354.808594 C 717.730469 360.945312 720.996094 362.136719 727.523438 360.769531 C 764.804688 352.980469 802.210938 345.785156 839.519531 338.121094 C 855.984375 334.738281 872.292969 330.59375 888.726562 327.058594 C 894.121094 325.898438 897.429688 322.996094 899.871094 318.152344 C 911.460938 295.175781 923.832031 272.585938 933.359375 248.609375 C 936.875 239.757812 936.816406 231.25 932.503906 222.785156 C 926.050781 210.128906 915.75 200.601562 906.128906 190.542969 C 882.675781 166.023438 859.109375 141.613281 835.683594 117.070312 C 831.515625 112.707031 827.863281 107.859375 823.847656 103.34375 C 822.480469 101.804688 820.636719 99.875 818.460938 101.246094 C 816.066406 102.753906 817.765625 105.015625 818.476562 106.890625 C 830.441406 138.347656 842.578125 169.730469 852.5 201.929688 C 858.113281 220.140625 856.320312 226.292969 840.492188 237.046875 C 825.785156 247.039062 809.871094 252.863281 791.78125 252.53125 C 772.582031 252.175781 753.371094 252.449219 734.167969 252.449219 C 734.167969 252.648438 734.167969 252.847656 734.167969 253.046875 C 712.070312 253.046875 689.972656 253.003906 667.875 253.070312 C 660.273438 253.09375 659.667969 254.636719 663.394531 261.386719 C 680.546875 292.457031 697.765625 323.492188 714.460938 354.808594 "/>
<path fill-rule="nonzero" fill="rgb(1.960754%, 1.960754%, 2.352905%)" fill-opacity="1" d="M 917.710938 327.152344 C 912.414062 337.652344 904.070312 344.195312 892.933594 346.59375 C 885.769531 348.132812 878.425781 349.839844 871.332031 351.488281 C 862.277344 353.597656 852.925781 355.765625 843.542969 357.695312 C 830.027344 360.472656 816.335938 363.21875 802.910156 365.90625 L 878.625 370.023438 L 880.742188 626.492188 L 982.65625 626.492188 L 982.65625 370.023438 L 1074.117188 366.148438 L 1074.117188 251.984375 L 953.359375 251.984375 C 952.929688 253.324219 952.460938 254.664062 951.929688 255.992188 C 944.109375 275.675781 934.515625 294.347656 925.234375 312.414062 C 922.714844 317.320312 920.199219 322.226562 917.710938 327.152344 "/>
<path fill-rule="nonzero" fill="rgb(1.960754%, 1.960754%, 2.352905%)" fill-opacity="1" d="M 1364.894531 505.316406 C 1359.828125 516.472656 1352.847656 526.046875 1343.941406 534.027344 C 1335.039062 542.019531 1324.5625 548.121094 1312.511719 552.34375 C 1300.464844 556.566406 1287.453125 558.671875 1273.492188 558.671875 C 1259.519531 558.671875 1246.515625 556.566406 1234.46875 552.34375 C 1222.417969 548.121094 1211.941406 542.019531 1203.039062 534.027344 C 1194.132812 526.046875 1187.144531 516.472656 1182.085938 505.316406 C 1177.019531 494.167969 1174.492188 481.804688 1174.492188 468.238281 C 1174.492188 454.378906 1177.019531 441.941406 1182.085938 430.933594 C 1187.144531 419.933594 1194.132812 410.4375 1203.039062 402.449219 C 1211.941406 394.464844 1222.417969 388.359375 1234.46875 384.136719 C 1246.515625 379.917969 1259.519531 377.804688 1273.492188 377.804688 C 1287.453125 377.804688 1300.464844 379.917969 1312.511719 384.136719 C 1324.5625 388.359375 1335.039062 394.464844 1343.941406 402.449219 C 1352.847656 410.4375 1359.828125 419.933594 1364.894531 430.933594 C 1369.953125 441.941406 1372.488281 454.378906 1372.488281 468.238281 C 1372.488281 481.804688 1369.953125 494.167969 1364.894531 505.316406 M 1461.796875 534.027344 C 1472.09375 513.984375 1477.25 492.054688 1477.25 468.238281 C 1477.25 444.429688 1472.09375 422.570312 1461.796875 402.675781 C 1451.492188 382.777344 1437.261719 365.371094 1419.109375 350.449219 C 1400.945312 335.527344 1379.5625 324 1354.941406 315.859375 C 1330.324219 307.71875 1303.167969 303.652344 1273.492188 303.652344 C 1244.15625 303.652344 1217.089844 307.71875 1192.300781 315.859375 C 1167.5 324 1145.945312 335.527344 1127.609375 350.449219 C 1109.277344 365.371094 1095.042969 382.777344 1084.921875 402.675781 C 1074.789062 422.570312 1069.730469 444.429688 1069.730469 468.238281 C 1069.730469 492.054688 1074.789062 513.910156 1084.921875 533.804688 C 1095.042969 553.695312 1109.277344 571.105469 1127.609375 586.027344 C 1145.945312 600.949219 1167.5 612.480469 1192.300781 620.617188 C 1217.089844 628.757812 1244.15625 632.828125 1273.492188 632.828125 C 1303.167969 632.828125 1330.324219 628.757812 1354.941406 620.617188 C 1379.5625 612.480469 1400.945312 601.027344 1419.109375 586.253906 C 1437.261719 571.488281 1451.492188 554.078125 1461.796875 534.027344 "/>
<path fill-rule="nonzero" fill="rgb(1.960754%, 1.960754%, 2.352905%)" fill-opacity="1" d="M 1741.503906 392.726562 C 1752.152344 400.867188 1757.480469 412.324219 1757.480469 427.089844 C 1757.480469 441.5625 1752.152344 452.867188 1741.503906 461.003906 C 1730.847656 469.140625 1714.699219 473.210938 1693.054688 473.210938 L 1635.433594 473.210938 L 1635.433594 380.519531 L 1693.054688 380.519531 C 1714.699219 380.519531 1730.847656 384.589844 1741.503906 392.726562 M 1842.335938 488.8125 C 1855.605469 471.484375 1862.242188 450.90625 1862.242188 427.089844 C 1862.242188 402.976562 1855.605469 382.101562 1842.335938 364.46875 C 1829.0625 346.832031 1810.296875 333.34375 1786.027344 323.996094 C 1761.753906 314.65625 1732.863281 309.980469 1699.339844 309.980469 L 1531.71875 309.980469 L 1531.71875 626.496094 L 1635.433594 626.496094 L 1635.433594 542.394531 L 1692.046875 542.394531 L 1758.527344 626.496094 L 1869.574219 626.496094 L 1790.382812 526.882812 C 1812.550781 517.785156 1829.867188 505.097656 1842.335938 488.8125 "/>
<path fill-rule="nonzero" fill="rgb(1.960754%, 1.960754%, 2.352905%)" fill-opacity="1" d="M 2195.640625 505.316406 C 2190.570312 516.472656 2183.589844 526.046875 2174.6875 534.027344 C 2165.78125 542.019531 2155.304688 548.121094 2143.257812 552.34375 C 2131.210938 556.566406 2118.199219 558.671875 2104.234375 558.671875 C 2090.261719 558.671875 2077.257812 556.566406 2065.210938 552.34375 C 2053.164062 548.121094 2042.6875 542.019531 2033.78125 534.027344 C 2024.878906 526.046875 2017.886719 516.472656 2012.832031 505.316406 C 2007.765625 494.167969 2005.234375 481.804688 2005.234375 468.238281 C 2005.234375 454.378906 2007.765625 441.941406 2012.832031 430.933594 C 2017.886719 419.933594 2024.878906 410.4375 2033.78125 402.449219 C 2042.6875 394.464844 2053.164062 388.359375 2065.210938 384.136719 C 2077.257812 379.917969 2090.261719 377.804688 2104.234375 377.804688 C 2118.199219 377.804688 2131.210938 379.917969 2143.257812 384.136719 C 2155.304688 388.359375 2165.78125 394.464844 2174.6875 402.449219 C 2183.589844 410.4375 2190.570312 419.933594 2195.640625 430.933594 C 2200.695312 441.941406 2203.234375 454.378906 2203.234375 468.238281 C 2203.234375 481.804688 2200.695312 494.167969 2195.640625 505.316406 M 2249.851562 350.449219 C 2231.691406 335.527344 2210.304688 324 2185.683594 315.859375 C 2161.066406 307.71875 2133.910156 303.652344 2104.234375 303.652344 C 2074.902344 303.652344 2047.835938 307.71875 2023.042969 315.859375 C 1998.246094 324 1976.6875 335.527344 1958.355469 350.449219 C 1940.019531 365.371094 1925.789062 382.777344 1915.664062 402.675781 C 1905.53125 422.570312 1900.476562 444.429688 1900.476562 468.238281 C 1900.476562 492.054688 1905.53125 513.910156 1915.664062 533.804688 C 1925.789062 553.695312 1940.019531 571.105469 1958.355469 586.027344 C 1976.6875 600.949219 1998.246094 612.480469 2023.042969 620.617188 C 2047.835938 628.757812 2074.902344 632.828125 2104.234375 632.828125 C 2133.910156 632.828125 2161.066406 628.757812 2185.683594 620.617188 C 2210.304688 612.480469 2231.691406 601.027344 2249.851562 586.253906 C 2268.003906 571.488281 2282.238281 554.078125 2292.542969 534.027344 C 2302.839844 513.984375 2307.996094 492.054688 2307.996094 468.238281 C 2307.996094 444.429688 2302.839844 422.570312 2292.542969 402.675781 C 2282.238281 382.777344 2268.003906 365.371094 2249.851562 350.449219 "/>
<path fill-rule="nonzero" fill="rgb(92.935181%, 10.850525%, 14.599609%)" fill-opacity="1" d="M 958.601562 663.167969 L 922.234375 725.800781 L 884.839844 663.167969 L 860.101562 663.167969 L 860.101562 771.574219 L 887.875 771.574219 L 887.875 715.664062 L 915.042969 760.886719 L 928.398438 760.886719 L 955.753906 714.054688 L 956.019531 771.574219 L 983.640625 771.574219 L 983.339844 663.167969 Z M 958.601562 663.167969 "/>
<path fill-rule="nonzero" fill="rgb(92.935181%, 10.850525%, 14.599609%)" fill-opacity="1" d="M 1236.71875 730.070312 C 1235.25 733.890625 1233.226562 737.167969 1230.648438 739.902344 C 1228.066406 742.640625 1225.03125 744.730469 1221.542969 746.175781 C 1218.050781 747.621094 1214.28125 748.34375 1210.234375 748.34375 C 1206.1875 748.34375 1202.417969 747.621094 1198.929688 746.175781 C 1195.4375 744.730469 1192.402344 742.640625 1189.820312 739.902344 C 1187.242188 737.167969 1185.214844 733.890625 1183.75 730.070312 C 1182.285156 726.25 1181.550781 722.015625 1181.550781 717.371094 C 1181.550781 712.621094 1182.285156 708.363281 1183.75 704.59375 C 1185.214844 700.824219 1187.242188 697.574219 1189.820312 694.835938 C 1192.402344 692.101562 1195.4375 690.011719 1198.929688 688.566406 C 1202.417969 687.121094 1206.1875 686.398438 1210.234375 686.398438 C 1214.28125 686.398438 1218.050781 687.121094 1221.542969 688.566406 C 1225.03125 690.011719 1228.066406 692.101562 1230.648438 694.835938 C 1233.226562 697.574219 1235.25 700.824219 1236.71875 704.59375 C 1238.183594 708.363281 1238.917969 712.621094 1238.917969 717.371094 C 1238.917969 722.015625 1238.183594 726.25 1236.71875 730.070312 M 1252.425781 677.027344 C 1247.164062 671.917969 1240.96875 667.96875 1233.835938 665.179688 C 1226.703125 662.390625 1218.832031 661 1210.234375 661 C 1201.734375 661 1193.894531 662.390625 1186.710938 665.179688 C 1179.523438 667.96875 1173.277344 671.917969 1167.964844 677.027344 C 1162.65625 682.136719 1158.53125 688.101562 1155.597656 694.914062 C 1152.660156 701.726562 1151.195312 709.214844 1151.195312 717.371094 C 1151.195312 725.527344 1152.660156 733.011719 1155.597656 739.824219 C 1158.53125 746.640625 1162.65625 752.601562 1167.964844 757.714844 C 1173.277344 762.824219 1179.523438 766.773438 1186.710938 769.558594 C 1193.894531 772.347656 1201.734375 773.742188 1210.234375 773.742188 C 1218.832031 773.742188 1226.703125 772.347656 1233.835938 769.558594 C 1240.96875 766.773438 1247.164062 762.851562 1252.425781 757.789062 C 1257.6875 752.734375 1261.808594 746.769531 1264.796875 739.902344 C 1267.78125 733.039062 1269.273438 725.527344 1269.273438 717.371094 C 1269.273438 709.214844 1267.78125 701.726562 1264.796875 694.914062 C 1261.808594 688.101562 1257.6875 682.136719 1252.425781 677.027344 "/>
<path fill-rule="nonzero" fill="rgb(92.935181%, 10.850525%, 14.599609%)" fill-opacity="1" d="M 1481.710938 733.828125 L 1452.914062 663.167969 L 1420.4375 663.167969 L 1465.816406 771.574219 L 1495.410156 771.574219 L 1540.941406 663.167969 L 1511.195312 663.167969 Z M 1481.710938 733.828125 "/>
<path fill-rule="nonzero" fill="rgb(92.935181%, 10.850525%, 14.599609%)" fill-opacity="1" d="M 1728.679688 728.054688 L 1775.882812 728.054688 L 1775.882812 705.136719 L 1728.679688 705.136719 L 1728.679688 686.863281 L 1782.257812 686.863281 L 1782.257812 663.167969 L 1698.933594 663.167969 L 1698.933594 771.574219 L 1784.230469 771.574219 L 1784.230469 747.878906 L 1728.679688 747.878906 Z M 1728.679688 728.054688 "/>
<path fill-rule="nonzero" fill="rgb(92.935181%, 10.850525%, 14.599609%)" fill-opacity="1" d="M 2013.476562 691.507812 C 2016.5625 694.296875 2018.105469 698.21875 2018.105469 703.277344 C 2018.105469 708.234375 2016.5625 712.105469 2013.476562 714.890625 C 2010.390625 717.679688 2005.710938 719.074219 1999.4375 719.074219 L 1982.742188 719.074219 L 1982.742188 687.324219 L 1999.4375 687.324219 C 2005.710938 687.324219 2010.390625 688.71875 2013.476562 691.507812 M 2042.691406 724.417969 C 2046.535156 718.480469 2048.460938 711.433594 2048.460938 703.277344 C 2048.460938 695.019531 2046.535156 687.867188 2042.691406 681.828125 C 2038.847656 675.789062 2033.410156 671.167969 2026.378906 667.964844 C 2019.34375 664.769531 2010.972656 663.167969 2001.257812 663.167969 L 1952.691406 663.167969 L 1952.691406 771.574219 L 1982.742188 771.574219 L 1982.742188 742.769531 L 1999.148438 742.769531 L 2018.410156 771.574219 L 2050.585938 771.574219 L 2027.625 737.4375 C 2034.046875 734.320312 2039.082031 729.992188 2042.691406 724.417969 "/>
<path fill-rule="nonzero" fill="rgb(92.935181%, 10.850525%, 14.599609%)" fill-opacity="1" d="M 2289.316406 715.433594 C 2285.773438 713.109375 2281.855469 711.253906 2277.554688 709.859375 C 2273.253906 708.464844 2268.953125 707.304688 2264.652344 706.375 C 2260.351562 705.445312 2256.40625 704.542969 2252.816406 703.664062 C 2249.222656 702.789062 2246.339844 701.652344 2244.164062 700.257812 C 2241.988281 698.863281 2240.902344 696.980469 2240.902344 694.605469 C 2240.902344 692.746094 2241.457031 691.097656 2242.570312 689.648438 C 2243.683594 688.203125 2245.503906 687.042969 2248.035156 686.164062 C 2250.5625 685.289062 2253.902344 684.847656 2258.050781 684.847656 C 2262.703125 684.847656 2267.511719 685.542969 2272.46875 686.9375 C 2277.425781 688.332031 2282.433594 690.421875 2287.496094 693.210938 L 2296.753906 670.445312 C 2291.492188 667.347656 2285.496094 665 2278.769531 663.398438 C 2272.039062 661.800781 2265.183594 661 2258.203125 661 C 2247.78125 661 2239.082031 662.601562 2232.097656 665.800781 C 2225.117188 669 2219.882812 673.234375 2216.390625 678.496094 C 2212.902344 683.765625 2211.15625 689.648438 2211.15625 696.152344 C 2211.15625 701.9375 2212.265625 706.710938 2214.492188 710.480469 C 2216.71875 714.25 2219.601562 717.292969 2223.144531 719.617188 C 2226.683594 721.9375 2230.605469 723.824219 2234.90625 725.269531 C 2239.207031 726.714844 2243.503906 727.902344 2247.808594 728.828125 C 2252.105469 729.761719 2256.027344 730.6875 2259.570312 731.617188 C 2263.109375 732.546875 2265.992188 733.734375 2268.21875 735.179688 C 2270.445312 736.628906 2271.558594 738.585938 2271.558594 741.0625 C 2271.558594 742.820312 2270.976562 744.34375 2269.8125 745.632812 C 2268.648438 746.925781 2266.804688 747.957031 2264.273438 748.730469 C 2261.742188 749.503906 2258.40625 749.890625 2254.257812 749.890625 C 2248.085938 749.890625 2241.886719 748.886719 2235.667969 746.871094 C 2229.441406 744.859375 2223.953125 742.304688 2219.199219 739.207031 L 2209.332031 761.816406 C 2214.394531 765.328125 2220.945312 768.191406 2228.988281 770.414062 C 2237.03125 772.632812 2245.402344 773.742188 2254.105469 773.742188 C 2264.628906 773.742188 2273.355469 772.140625 2280.285156 768.941406 C 2287.214844 765.742188 2292.429688 761.484375 2295.917969 756.164062 C 2299.410156 750.847656 2301.15625 745.039062 2301.15625 738.742188 C 2301.15625 733.066406 2300.066406 728.339844 2297.890625 724.570312 C 2295.714844 720.804688 2292.855469 717.757812 2289.316406 715.433594 "/>
</svg>
